<?xml version="1.0" encoding="UTF-8"?>
<!-- Generator: visioncortex VTracer 0.6.4 -->
<svg version="1.1" xmlns="http://www.w3.org/2000/svg" width="1920" height="1080">
<path d="M0 0 C633.6 0 1267.2 0 1920 0 C1920 356.4 1920 712.8 1920 1080 C1286.4 1080 652.8 1080 0 1080 C0 723.6 0 367.2 0 0 Z " fill="#020B14" transform="translate(0,0)"/>
<path d="M0 0 C1.74 1.1 3.47 2.2 5.21 3.3 C6.17 3.91 7.14 4.53 8.14 5.16 C12.52 7.98 16.78 10.95 21 14 C21.88 14.64 21.88 14.64 22.79 15.29 C31.91 21.88 40.39 28.84 48.53 36.61 C50.81 38.77 53.16 40.85 55.5 42.94 C62.4 49.14 62.4 49.14 65 52 C65 52.66 65 53.32 65 54 C65.66 54 66.32 54 67 54 C88.94 77.17 99.79 101.92 99.56 133.69 C98.64 155.78 98.64 155.78 108 175 C110.89 176.44 112.8 176.38 116 176 C120.9 172.17 126.47 165 127.32 158.62 C127.4 157.71 127.48 156.81 127.56 155.88 C127.65 154.96 127.73 154.05 127.82 153.12 C127.88 152.42 127.94 151.72 128 151 C132.53 154.71 134.52 159.62 136.94 164.81 C137.38 165.75 137.82 166.7 138.28 167.67 C145.8 184 151.47 201.91 152 220 C152.03 220.71 152.06 221.43 152.09 222.17 C153.1 246.92 147.11 267.98 130.81 287.12 C126.33 291.96 121.3 295.88 116.02 299.77 C109.22 304.58 109.22 304.58 106 312 C106.33 312.33 106.66 312.66 107 313 C109.09 312.94 111.17 312.8 113.25 312.62 C114.39 312.53 115.53 312.44 116.7 312.35 C119.53 312.05 122.23 311.61 125 311 C106.79 338.17 69.47 349.45 39 356 C17.63 360.1 -5.78 359.65 -27 355 C-27.82 354.83 -28.64 354.66 -29.49 354.48 C-59.45 348.16 -98.39 337.62 -116.75 310.94 C-119 307.36 -119 307.36 -119 305 C-118.38 305.27 -117.76 305.54 -117.12 305.81 C-109.09 308.87 -101.6 310.53 -93 311 C-94.51 306.26 -96.31 303.48 -99.94 300.06 C-117.58 283.2 -132.27 258.05 -133.25 233.2 C-133.88 203.12 -123.06 176.42 -103 154 C-102.34 154 -101.68 154 -101 154 C-100.94 154.56 -100.87 155.13 -100.8 155.71 C-98.79 177.13 -98.79 177.13 -88 195 C-83.92 197.72 -80.8 197.63 -76 197 C-71.13 195.42 -66.99 193.19 -63 190 C-62.34 190 -61.68 190 -61 190 C-61.02 188.74 -61.05 187.48 -61.07 186.18 C-61.31 167.15 -59.98 148.68 -55.51 130.15 C-55.03 128.13 -54.58 126.11 -54.13 124.08 C-51.1 111.35 -44.65 91.16 -32.9 83.66 C-30.14 82.7 -28.7 83.92 -26 85 C-20.31 85.66 -15.84 85.3 -11 82 C-1.93 73.14 -0.83 59.26 -0.62 47.18 C-0.61 45.98 -0.6 44.79 -0.59 43.55 C-0.57 42.3 -0.55 41.05 -0.53 39.76 C-0.48 36.47 -0.44 33.18 -0.4 29.89 C-0.36 26.52 -0.31 23.15 -0.26 19.77 C-0.16 13.18 -0.08 6.59 0 0 Z " fill="#FE9B45" transform="translate(1363,355)"/>
<path d="M0 0 C21.45 0 42.9 0 65 0 C70 14 75 28 80 42 C80.42 43.17 80.42 43.17 80.84 44.37 C85.84 58.37 90.8 72.38 95.62 86.44 C100.17 99.68 104.82 112.87 109.5 126.06 C109.87 127.11 110.24 128.16 110.63 129.24 C114.88 141.23 119.14 153.21 123.44 165.19 C127.12 175.46 130.7 185.77 134.23 196.09 C136.39 202.38 138.58 208.66 140.85 214.91 C141.09 215.56 141.32 216.2 141.56 216.87 C142.68 219.97 143.81 223.07 144.95 226.17 C145.35 227.27 145.75 228.37 146.16 229.5 C146.52 230.47 146.87 231.44 147.24 232.44 C148 235 148 235 148 239 C150.97 239 153.94 239 157 239 C157.12 238.13 157.25 237.27 157.37 236.38 C157.99 233.07 158.89 230.15 160.04 226.99 C160.66 225.28 160.66 225.28 161.29 223.53 C161.73 222.33 162.17 221.12 162.62 219.88 C163.08 218.61 163.54 217.35 163.99 216.09 C164.68 214.19 165.37 212.29 166.05 210.39 C167.99 205.04 169.88 199.68 171.75 194.31 C172.31 192.72 172.86 191.12 173.42 189.53 C173.81 188.4 173.81 188.4 174.22 187.24 C175.49 183.6 176.78 179.95 178.06 176.31 C178.31 175.61 178.56 174.91 178.81 174.19 C179.99 170.86 181.17 167.52 182.36 164.18 C185.58 155.1 188.74 145.99 191.88 136.88 C192.31 135.6 192.75 134.33 193.19 133.06 C195.62 126 195.62 126 198.06 118.93 C202.09 107.17 206.27 95.48 210.56 83.81 C217.3 65.5 223.67 47.08 230 28.63 C233.28 19.06 236.61 9.52 240 0 C251.22 0 262.44 0 274 0 C274 10.23 274 20.46 274 31 C284.23 31 294.46 31 305 31 C305 111.19 305 191.38 305 274 C294.77 274 284.54 274 274 274 C273.5 154.21 273.5 154.21 273 32 C269.37 32 265.74 32 262 32 C255.35 50.28 248.75 68.56 242.46 86.97 C240.05 94.01 237.57 101.01 235 108 C230.13 121.26 225.58 134.64 221 148 C216.26 161.8 211.36 175.54 206.35 189.25 C202.28 200.39 198.36 211.57 194.52 222.79 C191.4 231.9 188.14 240.96 184.82 250 C182.77 255.61 180.78 261.25 178.81 266.9 C177.1 271.79 177.1 271.79 176 274 C160.49 274 144.98 274 129 274 C120.63 250.65 112.32 227.28 104.12 203.88 C97.58 185.2 91.02 166.54 84.4 147.9 C80.32 136.4 76.26 124.9 72.21 113.38 C71.6 111.66 71.6 111.66 70.99 109.9 C69.36 105.27 67.73 100.64 66.11 96.01 C62.01 84.33 57.89 72.66 53.69 61.02 C53.19 59.64 53.19 59.64 52.68 58.22 C51.13 53.94 49.57 49.66 48.01 45.38 C47.47 43.9 46.93 42.41 46.39 40.93 C46.15 40.26 45.9 39.59 45.65 38.91 C44.64 36.11 44 34 44 31 C39.71 31 35.42 31 31 31 C31 111.19 31 191.38 31 274 C20.77 274 10.54 274 0 274 C0 183.58 0 93.16 0 0 Z " fill="#FDFEFE" transform="translate(376,397)"/>
<path d="M0 0 C1.74 1.1 3.47 2.2 5.21 3.3 C6.17 3.91 7.14 4.53 8.14 5.16 C12.52 7.98 16.78 10.95 21 14 C21.88 14.64 21.88 14.64 22.79 15.29 C31.91 21.88 40.39 28.84 48.53 36.61 C50.81 38.77 53.16 40.85 55.5 42.94 C62.4 49.14 62.4 49.14 65 52 C65 52.66 65 53.32 65 54 C65.66 54 66.32 54 67 54 C88.94 77.17 99.79 101.92 99.56 133.69 C98.64 155.78 98.64 155.78 108 175 C110.89 176.44 112.8 176.38 116 176 C120.9 172.17 126.47 165 127.32 158.62 C127.4 157.71 127.48 156.81 127.56 155.88 C127.65 154.96 127.73 154.05 127.82 153.12 C127.88 152.42 127.94 151.72 128 151 C132.53 154.71 134.52 159.62 136.94 164.81 C137.38 165.75 137.82 166.7 138.28 167.67 C145.8 184 151.47 201.91 152 220 C152.03 220.71 152.06 221.43 152.09 222.17 C153.1 246.92 147.11 267.98 130.81 287.12 C126.33 291.96 121.3 295.88 116.02 299.77 C109.22 304.58 109.22 304.58 106 312 C106.33 312.33 106.66 312.66 107 313 C109.09 312.94 111.17 312.8 113.25 312.62 C114.39 312.53 115.53 312.44 116.7 312.35 C119.53 312.05 122.23 311.61 125 311 C107.01 337.84 69.33 349.98 39 356 C34.68 356.63 30.36 356.91 26 357 C27.33 354.34 28.35 354.39 31.12 353.44 C68.24 339.12 98 303.88 115 269 C114.41 269.22 113.81 269.43 113.2 269.66 C106.74 271.83 100.82 272.64 94 272 C93 271 93 271 92.7 267.86 C93.05 263.33 94.33 261.12 96.75 257.31 C103.19 246.65 106.53 236.65 105 224 C103.97 220.48 102.68 217.25 101 214 C100.16 214.36 99.33 214.72 98.46 215.09 C89.54 218.65 81.73 220.47 72 219 C68.38 217.43 66.63 215.28 64.88 211.72 C62.4 204.06 63.89 195.19 65 187.38 C69.95 152.05 61.69 113.46 41.06 84.19 C31.86 71.68 31.86 71.68 19.19 63.25 C17.61 62.63 17.61 62.63 16 62 C16.05 62.78 16.09 63.55 16.14 64.35 C16.8 83.94 7.54 101.21 -3.4 116.91 C-21.65 143.3 -32.02 172.88 -39.99 203.67 C-46.84 230.08 -46.84 230.08 -59 239 C-65.77 241.26 -73.64 241.09 -80.12 238.06 C-85.88 234.77 -91.24 230.61 -96 226 C-96 225.34 -96 224.68 -96 224 C-96.66 224 -97.32 224 -98 224 C-100.62 241.19 -100.6 259.46 -95 276 C-94.72 277 -94.45 278 -94.16 279.03 C-83.93 314.16 -55.03 336.22 -25 354 C-27.51 355.26 -28.35 354.87 -31.05 354.25 C-31.88 354.06 -32.72 353.87 -33.57 353.67 C-34.93 353.34 -34.93 353.34 -36.31 353 C-37.72 352.66 -37.72 352.66 -39.15 352.31 C-67.17 345.31 -101.87 334.59 -118.11 308.78 C-119 307 -119 307 -119 305 C-118.38 305.27 -117.76 305.54 -117.12 305.81 C-109.09 308.87 -101.6 310.53 -93 311 C-94.51 306.26 -96.31 303.48 -99.94 300.06 C-117.58 283.2 -132.27 258.05 -133.25 233.2 C-133.88 203.12 -123.06 176.42 -103 154 C-102.34 154 -101.68 154 -101 154 C-100.94 154.56 -100.87 155.13 -100.8 155.71 C-98.79 177.13 -98.79 177.13 -88 195 C-83.92 197.72 -80.8 197.63 -76 197 C-71.13 195.42 -66.99 193.19 -63 190 C-62.34 190 -61.68 190 -61 190 C-61.02 188.74 -61.05 187.48 -61.07 186.18 C-61.31 167.15 -59.98 148.68 -55.51 130.15 C-55.03 128.13 -54.58 126.11 -54.13 124.08 C-51.1 111.35 -44.65 91.16 -32.9 83.66 C-30.14 82.7 -28.7 83.92 -26 85 C-20.31 85.66 -15.84 85.3 -11 82 C-1.93 73.14 -0.83 59.26 -0.62 47.18 C-0.61 45.98 -0.6 44.79 -0.59 43.55 C-0.57 42.3 -0.55 41.05 -0.53 39.76 C-0.48 36.47 -0.44 33.18 -0.4 29.89 C-0.36 26.52 -0.31 23.15 -0.26 19.77 C-0.16 13.18 -0.08 6.59 0 0 Z " fill="#FC4B1E" transform="translate(1363,355)"/>
<path d="M0 0 C0.76 0.52 1.52 1.04 2.3 1.58 C2.86 2.05 3.42 2.52 4 3 C4 3.66 4 4.32 4 5 C4.56 5.23 5.12 5.46 5.7 5.7 C20.49 14.07 29.83 35.63 34.29 51.33 C39.57 71.33 40.02 92.87 35 113 C34.84 113.66 34.68 114.31 34.51 114.99 C30.67 130.13 23.61 144.45 13 156 C12.26 156.83 11.53 157.66 10.77 158.51 C-4.59 174.89 -27.48 185.24 -49.91 186.31 C-72.61 186.86 -96.51 181.24 -114 166 C-115.19 165 -115.19 165 -116.41 163.98 C-130.34 151.97 -139.08 137.25 -145 120 C-145.34 119.05 -145.68 118.09 -146.03 117.11 C-154.7 89.25 -151.32 57.15 -138.15 31.29 C-126.62 9.68 -108.15 -5.98 -85 -14 C-56.12 -22.56 -24.48 -17.14 0 0 Z M-80 14 C-81.39 14.6 -81.39 14.6 -82.81 15.21 C-99.99 23.62 -111.01 39.41 -117.25 57.06 C-124.49 78.21 -121.36 103.63 -112.12 123.5 C-109.28 128.81 -105.98 133.48 -102 138 C-101.09 139.03 -101.09 139.03 -100.16 140.09 C-89.55 151.39 -76.06 157.67 -60.58 158.2 C-43.03 158.5 -27.33 155.03 -14.08 142.81 C1.19 127.76 8.12 108.69 8.38 87.53 C8.35 65.57 5.05 45.46 -10.72 29.03 C-24.45 15.46 -39.95 9.57 -58.99 9.63 C-66.54 9.78 -73.05 10.95 -80 14 Z " fill="#FCFCFC" transform="translate(859,489)"/>
<path d="M0 0 C21.35 18.16 31.97 44.61 34.45 72.02 C36.29 99.83 29.13 129.61 10.89 151.2 C-4.93 169.04 -27.07 181.57 -51.15 183.19 C-77.48 184.47 -101.19 178.18 -121.2 160.56 C-140.08 143.27 -151.87 118.88 -153.84 93.24 C-153.95 89.37 -153.96 85.51 -153.92 81.64 C-153.92 80.96 -153.91 80.28 -153.91 79.59 C-153.83 69.42 -153.33 59.83 -150.55 50.02 C-150.22 48.79 -149.89 47.56 -149.55 46.3 C-145.41 32.43 -138.25 19.76 -128.55 9.02 C-127.87 8.26 -127.2 7.5 -126.5 6.73 C-116.66 -3.71 -104.76 -10.72 -91.55 -15.98 C-89.97 -16.64 -89.97 -16.64 -88.35 -17.3 C-58.87 -27.27 -23.94 -18.66 0 0 Z M-99.55 21.02 C-100.18 21.46 -100.82 21.91 -101.48 22.38 C-113.87 31.64 -121.31 50.48 -124.08 65.05 C-126.85 88.69 -123.12 113.14 -108.62 132.59 C-99.21 143.79 -86.07 152.42 -71.55 155.02 C-59.29 156.07 -46.9 156.13 -35.55 151.02 C-34.62 150.61 -33.7 150.21 -32.75 149.8 C-14.92 141.1 -4.85 125.36 1.46 107.11 C8.12 85.74 6.24 60.91 -3.86 40.95 C-13.27 24.92 -26.66 12.77 -44.86 7.67 C-65.17 4.08 -83.41 8.35 -99.55 21.02 Z " fill="#FCFCFC" transform="translate(1141.546875,491.984375)"/>
<path d="M0 0 C-0.07 1.05 -0.14 2.1 -0.22 3.19 C-0.95 15.06 -1.16 26.94 -1.23 38.83 C-1.24 40.59 -1.26 42.36 -1.28 44.12 C-1.58 65.42 -1.58 65.42 7.75 84 C13.07 86.37 18.74 85.09 23.99 83.17 C24.65 82.91 25.32 82.65 26 82.38 C26.7 82.11 27.4 81.84 28.11 81.56 C33.41 79.43 37.72 76.79 42 73 C43.33 71.99 44.66 70.99 46 70 C45.32 74.26 43.9 78.08 42.28 82.05 C41.88 83.04 41.88 83.04 41.47 84.05 C40.63 86.14 39.79 88.22 38.94 90.31 C38.36 91.73 37.79 93.16 37.22 94.58 C35.82 98.06 34.41 101.53 33 105 C36.96 103.02 40.92 101.04 45 99 C43.72 107.65 41.31 115.27 38.06 123.38 C37.58 124.6 37.09 125.82 36.59 127.07 C30.03 143.3 22.57 158.75 11 172 C10.36 172.74 9.72 173.47 9.07 174.23 C3.99 179.71 -0.93 182.1 -8.4 182.4 C-10.39 182.41 -12.38 182.4 -14.38 182.38 C-15.37 182.39 -16.36 182.4 -17.38 182.41 C-27.05 182.37 -34.28 180.47 -41.5 173.94 C-42.05 173.45 -42.61 172.96 -43.18 172.46 C-59.53 157.81 -69.65 139.79 -76.44 119.12 C-76.7 118.35 -76.96 117.58 -77.22 116.78 C-78.92 111.36 -79.23 106.68 -79 101 C-77.86 101.46 -77.86 101.46 -76.69 101.94 C-68.97 104.99 -61.79 104.71 -54 102 C-54.33 101.01 -54.66 100.02 -55 99 C-57.14 72.62 -51.33 45.63 -34.47 24.79 C-27 16.04 -12.18 0 0 0 Z " fill="#FEDC57" transform="translate(1388,531)"/>
<path d="M0 0 C9.9 0 19.8 0 30 0 C30 81.84 30 163.68 30 248 C20.43 248.33 10.86 248.66 1 249 C0.5 261.87 0.5 261.87 0 275 C-20.13 275 -40.26 275 -61 275 C-61 266.09 -61 257.18 -61 248 C-41.2 247.67 -21.4 247.34 -1 247 C-0.67 165.49 -0.34 83.98 0 0 Z " fill="#FAFAFA" transform="translate(928,470)"/>
<path d="M0 0 C0.66 0 1.32 0 2 0 C2.15 0.61 2.29 1.22 2.45 1.84 C6.42 17.37 11.45 35.3 25 45 C28.46 46.73 32.21 46.48 36 46 C39.4 44.21 39.4 44.21 42 42 C42.66 41.67 43.32 41.34 44 41 C41.89 48.57 39.24 55.84 36.31 63.12 C35.87 64.22 35.43 65.31 34.98 66.44 C24.39 92.46 24.39 92.46 18 99 C10.63 101.64 -1.62 102.03 -8.71 98.74 C-10.86 96.65 -12.36 94.51 -14 92 C-14.89 90.82 -15.79 89.65 -16.69 88.48 C-26.55 75.63 -37.73 61.02 -36 44 C-34.99 44.66 -33.98 45.32 -32.94 46 C-29.14 48.14 -26.39 48.73 -22 48 C-16.03 43.63 -14.16 36.88 -11.56 30.19 C-11.08 28.98 -10.61 27.78 -10.11 26.54 C-6.63 17.74 -3.23 8.9 0 0 Z " fill="#FBFAC9" transform="translate(1371,613)"/>
<path d="M0 0 C6.5 8.04 6.96 18.02 6 28 C3.1 43.02 -5.37 54.9 -17.88 63.5 C-21.69 66 -21.69 66 -24 66 C-24.71 49.96 -23.37 34.51 -12.16 21.94 C-10.49 20.24 -8.77 18.61 -7 17 C-1.81 12.08 -0.6 6.91 0 0 Z " fill="#F74A1E" transform="translate(1270,433)"/>
<path d="M0 0 C9.57 0 19.14 0 29 0 C29 9.57 29 19.14 29 29 C19.43 29 9.86 29 0 29 C0 19.43 0 9.86 0 0 Z " fill="#FCFCFC" transform="translate(928,397)"/>
</svg>
