<svg viewBox="0 0 1024 1176.463" xmlns="http://www.w3.org/2000/svg"><path d="M883.493 408.43h32.67V542.27h75.7v27.272h-108.37zm-84.856 164.754c-1.524.102-3.303.16-5.096.16-17.07 0-32.913-5.248-46.007-14.216l.28.18c-11.495-9.097-18.803-23.047-18.803-38.704 0-.298.003-.596.008-.893v.046h31.99c.354 8.397 4.29 15.81 10.31 20.796l.046.038c6.51 3.962 14.383 6.307 22.804 6.307 1.094 0 2.18-.04 3.253-.117l-.143.008h.376c4.097 0 8.1-.407 11.967-1.184l-.386.065c3.732-.717 7.055-1.967 10.08-3.685l-.163.085c2.803-1.607 5.11-3.774 6.833-6.364l.046-.074c1.634-2.585 2.605-5.732 2.605-9.105 0-.174-.003-.347-.008-.52v.025c.008-.174.012-.378.012-.584 0-3.397-1.052-6.55-2.846-9.148l.035.054c-2.12-2.714-4.796-4.89-7.87-6.38l-.13-.058c-3.56-1.762-7.725-3.31-12.065-4.42l-.452-.1q-7.317-1.92-16.555-3.957-10.797-2.46-20.834-5.52c-6.698-1.984-12.542-4.793-17.815-8.38l.22.142c-5.017-3.46-9.104-7.905-12.056-13.082l-.102-.195c-2.94-5.548-4.668-12.13-4.668-19.114 0-.56.01-1.12.033-1.676l-.003.08c-.008-.317-.013-.69-.013-1.065 0-7.246 1.72-14.09 4.77-20.147l-.116.257c3.15-6.077 7.48-11.135 12.72-15.034l.116-.082c5.544-4.046 12.047-7.184 19.073-9.028l.4-.09c7.138-1.933 15.33-3.044 23.785-3.044.355 0 .71.002 1.063.006h-.053c1.022-.054 2.218-.084 3.42-.084 15.156 0 29.18 4.84 40.612 13.06l-.21-.143c10.983 8.91 18.034 22.296 18.355 37.337v.053h-31.31c-.456-7.493-4.228-14.02-9.854-18.188l-.065-.047c-5.605-3.82-12.526-6.1-19.98-6.1-.427 0-.852.006-1.275.02h.06c-.577-.032-1.253-.05-1.933-.05-7.102 0-13.75 1.95-19.433 5.344l.174-.097c-4.742 2.766-7.878 7.83-7.878 13.625v.138-.007c-.006.165-.01.36-.01.555 0 2.842.808 5.496 2.206 7.744l-.036-.063c1.696 2.4 3.88 4.342 6.42 5.71l.1.05c3.13 1.724 6.76 3.187 10.574 4.202l.342.076c4.36 1.2 9.517 2.48 15.556 3.84q12.416 2.7 23.313 5.958c7.286 2.14 13.645 5.097 19.44 8.85l-.285-.173c5.367 3.52 9.73 8.14 12.854 13.564l.103.193c2.996 5.713 4.754 12.48 4.754 19.658 0 .61-.012 1.218-.037 1.822l.003-.086c.005.264.008.573.008.884 0 7.587-1.744 14.766-4.853 21.16l.127-.29c-3.172 6.41-7.59 11.76-12.972 15.92l-.104.076c-5.635 4.288-12.248 7.648-19.414 9.695l-.42.102c-7.29 2.16-15.665 3.405-24.33 3.405-.232 0-.462 0-.693-.003h.035zm-150.316 0c-1.523.102-3.302.16-5.095.16-17.07 0-32.914-5.248-46.008-14.216l.28.18c-11.495-9.097-18.803-23.048-18.803-38.705 0-.298.003-.595.008-.892v.046h31.99c.354 8.397 4.29 15.81 10.31 20.796l.046.038c6.51 3.962 14.383 6.307 22.804 6.307 1.094 0 2.18-.04 3.253-.117l-.144.008h.376c4.097 0 8.1-.407 11.968-1.184l-.386.065c3.732-.717 7.055-1.967 10.08-3.685l-.163.085c2.802-1.607 5.11-3.774 6.832-6.364l.046-.074c1.636-2.585 2.607-5.732 2.607-9.106 0-.174-.003-.347-.008-.52v.026c.008-.174.012-.378.012-.583 0-3.398-1.05-6.55-2.845-9.15l.034.054c-2.118-2.714-4.795-4.89-7.868-6.38l-.132-.058c-3.558-1.762-7.724-3.31-12.064-4.42l-.452-.1q-7.317-1.92-16.555-3.957-10.797-2.46-20.834-5.52c-6.7-1.984-12.543-4.793-17.816-8.38l.22.142c-5.016-3.46-9.103-7.905-12.055-13.082l-.103-.195c-2.94-5.548-4.668-12.13-4.668-19.114 0-.56.01-1.12.032-1.676l-.003.08c-.01-.318-.014-.692-.014-1.068 0-7.244 1.718-14.087 4.77-20.144l-.118.257c3.15-6.078 7.48-11.136 12.72-15.035l.116-.082c5.544-4.045 12.047-7.182 19.073-9.025l.4-.09c7.138-1.932 15.332-3.043 23.785-3.043.355 0 .71.002 1.062.006h-.054c1.022-.053 2.218-.083 3.42-.083 15.157 0 29.183 4.84 40.615 13.062l-.207-.143c10.982 8.91 18.033 22.295 18.354 37.336v.053h-31.31c-.456-7.493-4.228-14.02-9.854-18.188l-.066-.047c-5.605-3.82-12.526-6.1-19.98-6.1-.427 0-.852.007-1.275.022l.06-.002c-.577-.03-1.253-.05-1.933-.05-7.102 0-13.75 1.95-19.434 5.345l.174-.096c-4.742 2.765-7.878 7.828-7.878 13.623v.14-.008c-.006.166-.01.36-.01.556 0 2.843.808 5.497 2.206 7.745l-.036-.062c1.696 2.4 3.88 4.342 6.42 5.71l.1.05c3.13 1.724 6.76 3.187 10.574 4.202l.342.077c4.36 1.2 9.517 2.48 15.556 3.84q12.416 2.7 23.313 5.958c7.287 2.14 13.646 5.097 19.442 8.85l-.286-.173c5.367 3.52 9.73 8.14 12.854 13.563l.103.193c2.996 5.713 4.754 12.48 4.754 19.658 0 .61-.013 1.22-.038 1.823l.002-.086c.005.263.008.572.008.883 0 7.587-1.744 14.766-4.853 21.16l.126-.29c-3.172 6.41-7.59 11.76-12.972 15.92l-.103.076c-5.636 4.288-12.25 7.648-19.415 9.695l-.42.103c-7.275 2.158-15.635 3.4-24.286 3.4-.248 0-.495 0-.742-.003h.038zM476.81 469.292h.438c4.065-5.36 9.1-9.758 14.874-12.992l.242-.124c5.894-3.04 12.863-4.82 20.248-4.82.487 0 .972.007 1.455.022l-.07-.002c.704-.044 1.528-.07 2.358-.07 10.01 0 19.175 3.626 26.25 9.635l-.057-.047c6.497 6.445 10.52 15.377 10.52 25.248 0 .854-.03 1.7-.09 2.537l.007-.113v81.338h-18.15v-79.777c.03-.426.045-.923.045-1.425 0-6.335-2.692-12.04-6.994-16.038l-.014-.013c-4.777-3.797-10.896-6.09-17.55-6.09-.607 0-1.21.018-1.806.056l.082-.004-.338-.002c-4.47 0-8.74.867-12.646 2.442l.227-.08c-3.917 1.562-7.267 3.77-10.08 6.523l.004-.005c-2.824 2.777-5.065 6.136-6.53 9.885l-.066.192c-1.495 3.774-2.36 8.146-2.36 12.72v.417-.02 71.258h-18.153V454.096h18.155zm-92.416-3.8c-.196-.003-.428-.005-.66-.005-4.95 0-9.657 1.032-13.92 2.893l.224-.087c-4.204 1.878-7.752 4.53-10.607 7.802l-.03.036c-2.92 3.387-5.333 7.317-7.058 11.597l-.1.28c-1.81 4.285-3.11 9.253-3.66 14.445l-.02.23h69.703v-.095c0-10.345-3.587-19.852-9.585-27.345l.067.087c-5.644-6.088-13.684-9.885-22.61-9.885-.614 0-1.222.018-1.826.053l.084-.004zm1.12 107.53c-.28.005-.61.008-.94.008-8.215 0-16.017-1.77-23.045-4.95l.35.143c-6.94-3.198-12.8-7.627-17.542-13.06l-.052-.06c-4.708-5.466-8.453-11.917-10.875-18.983l-.12-.41c-2.41-6.873-3.802-14.797-3.802-23.047 0-.206 0-.412.003-.617v-.36c0-8.324 1.437-16.313 4.076-23.732l-.153.495c2.627-7.48 6.434-13.926 11.257-19.464l-.06.07c4.773-5.415 10.54-9.828 17.034-12.978l.32-.14c6.365-3.034 13.832-4.806 21.713-4.806.24 0 .48.002.718.005h-.036c.315-.007.687-.01 1.06-.01 7.943 0 15.47 1.772 22.212 4.945l-.32-.135c6.68 3.23 12.26 7.774 16.6 13.333l.076.103c4.486 5.856 7.985 12.74 10.094 20.206l.103.427c2.212 7.605 3.484 16.34 3.484 25.373 0 .33-.003.66-.006.99v-.05H348.09c.274 5.936 1.394 11.52 3.245 16.76l-.125-.407c1.764 5.085 4.277 9.48 7.454 13.306l-.056-.07c3.098 3.663 6.91 6.618 11.234 8.67l.202.087c4.34 1.975 9.412 3.127 14.754 3.127.254 0 .507-.003.76-.008h-.04c.464.023 1.007.036 1.553.036 7.203 0 13.886-2.226 19.397-6.03l-.115.076c5.567-4.376 9.567-10.524 11.158-17.585l.04-.207h17.716c-2.096 11.755-8.256 21.798-16.947 28.842l-.09.07c-8.507 6.293-19.206 10.072-30.787 10.072-.677 0-1.35-.013-2.022-.04l.098.004zm-121.446-14.995c.194.005.423.007.652.007 5.09 0 9.88-1.29 14.06-3.563l-.156.078c4.232-2.37 7.73-5.575 10.37-9.414l.067-.103c2.765-4.107 4.892-8.907 6.1-14.06l.06-.295c1.272-5.203 2.003-11.176 2.003-17.32 0-.294-.002-.587-.005-.88v-.399c0-6.24-.728-12.307-2.106-18.125l.106.532c-1.278-5.52-3.404-10.385-6.263-14.725l.105.168c-2.653-3.99-6.115-7.234-10.17-9.56l-.148-.077c-3.975-2.192-8.714-3.483-13.755-3.483-.24 0-.476.003-.714.01l.035-.002c-.24-.006-.52-.01-.802-.01-5.703 0-11.095 1.333-15.883 3.702l.21-.094c-4.684 2.372-8.563 5.714-11.494 9.784l-.065.093c-2.957 4.156-5.266 9.012-6.65 14.244l-.07.31c-1.423 5.205-2.24 11.18-2.24 17.346v.39-.02.386c0 6.147.728 12.124 2.105 17.848l-.105-.52c1.292 5.492 3.504 10.322 6.49 14.57l-.09-.133c2.934 4.103 6.732 7.4 11.143 9.677l.174.082c4.662 2.254 10.138 3.57 15.923 3.57.39 0 .78-.005 1.17-.017h-.057zm-53.78-103.97h18.154v16.354h.44c4.098-5.73 9.265-10.426 15.243-13.87l.233-.125c5.918-3.187 12.95-5.06 20.42-5.06.47 0 .936.008 1.4.023l-.067-.002c.15-.002.327-.003.503-.003 7.114 0 13.87 1.533 19.957 4.286l-.305-.124c6.23 2.83 11.467 6.85 15.62 11.808l.055.068c4.414 5.418 7.898 11.797 10.087 18.75l.11.404c2.34 7.322 3.688 15.745 3.688 24.483 0 .445-.004.89-.01 1.336v-.067c.004.315.007.688.007 1.062 0 8.6-1.274 16.905-3.643 24.734l.156-.604c-2.192 7.396-5.602 13.822-10.045 19.388l.088-.113c-4.235 5.19-9.562 9.326-15.645 12.087l-.27.11c-5.975 2.682-12.95 4.245-20.29 4.245-.275 0-.55-.003-.825-.008h.04c-.337.01-.734.013-1.133.013-7.03 0-13.732-1.4-19.843-3.938l.343.126c-6.477-3.07-11.836-7.57-15.832-13.116l-.083-.12h-.4v62.26h-18.155zm-99.732 101.49c.354.01.772.013 1.19.013 8.577 0 16.72-1.86 24.046-5.2l-.363.15c7.182-3.36 13.234-8.016 18.09-13.722l.063-.074c4.898-5.852 8.698-12.81 10.972-20.424l.105-.41c2.337-7.58 3.683-16.293 3.683-25.322 0-.32-.002-.64-.005-.96v.05c.002-.206.003-.45.003-.693 0-9.103-1.344-17.892-3.847-26.18l.166.64c-2.418-8.058-6.214-15.048-11.16-21.055l.082.103c-4.898-5.83-10.955-10.52-17.836-13.743l-.318-.134c-6.932-3.167-15.036-5.013-23.57-5.013-.46 0-.916.005-1.37.016l.067-.002c-.355-.008-.774-.012-1.193-.012-8.576 0-16.717 1.86-24.043 5.2l.362-.15c-7.192 3.372-13.247 8.058-18.09 13.798l-.064.078c-4.88 5.898-8.678 12.89-10.97 20.536l-.107.418c-2.337 7.58-3.683 16.295-3.683 25.324 0 .32.002.64.005.957v-.05c-.002.207-.003.452-.003.696 0 9.103 1.344 17.89 3.847 26.178l-.166-.64c2.398 8.022 6.195 14.976 11.154 20.93l-.076-.095c4.92 5.78 10.972 10.44 17.833 13.66l.323.136c6.987 3.166 15.15 5.01 23.743 5.01.397 0 .794-.003 1.19-.01h-.06zm0 17.715c-.387.007-.844.01-1.302.01-11.336 0-22.132-2.312-31.942-6.49l.533.202c-9.7-4.15-17.912-10.068-24.58-17.414l-.053-.058c-6.654-7.456-11.947-16.292-15.386-26.005l-.17-.55c-3.498-9.938-5.52-21.397-5.52-33.33 0-11.887 2.007-23.306 5.7-33.937l-.22.726c3.61-10.262 8.9-19.097 15.623-26.63l-.07.077c6.74-7.408 14.965-13.336 24.217-17.336l.456-.176c9.285-3.975 20.09-6.287 31.434-6.287.45 0 .897.004 1.344.01h-.067c.388-.007.845-.01 1.303-.01 11.336 0 22.13 2.312 31.94 6.49l-.532-.2c9.7 4.15 17.913 10.067 24.58 17.413l.053.058c6.654 7.455 11.947 16.29 15.385 26.002l.17.55c3.473 9.923 5.48 21.362 5.48 33.27s-2.007 23.348-5.7 34l.22-.73c-3.626 10.257-8.917 19.09-15.625 26.633l.07-.08c-6.718 7.407-14.932 13.326-24.18 17.298l-.453.173c-9.303 4.003-20.133 6.33-31.506 6.33-.424 0-.846-.002-1.268-.01l.064.002z"/></svg>